<svg version="1.1" id="Layer_1" xmlns="http://www.w3.org/2000/svg" xmlns:xlink="http://www.w3.org/1999/xlink" x="0px" y="0px"
	 width="30px" height="30Spx" viewBox="0 0 131 122" enable-background="new 0 0 131 122" xml:space="preserve">
<path fill="#1B222E" opacity="1.000000" stroke="none" 
	d="
M77.000000,123.000000 
	C51.333332,123.000000 26.166666,123.000000 1.000000,123.000000 
	C1.000000,82.333336 1.000000,41.666668 1.000000,1.000000 
	C44.666668,1.000000 88.333336,1.000000 132.000000,1.000000 
	C132.000000,41.666668 132.000000,82.333336 132.000000,123.000000 
	C113.833336,123.000000 95.666664,123.000000 77.000000,123.000000 
M79.748123,117.398766 
	C116.755188,111.209572 132.653137,74.581062 124.514313,49.206329 
	C118.717812,49.206329 112.931061,49.206329 106.985428,49.206329 
	C106.985428,50.210014 106.885132,51.014179 107.000389,51.786156 
	C108.909569,64.573349 107.580986,77.061142 102.998672,89.095581 
	C98.454346,101.030251 91.432663,111.106277 78.469109,114.828644 
	C63.325245,119.177055 48.060890,112.306061 40.138485,97.700691 
	C29.786604,78.616463 29.370308,58.426388 35.750904,38.196609 
	C40.643192,22.685530 49.792786,10.997155 67.789291,9.689080 
	C68.592064,9.630732 69.322922,8.582810 70.087273,7.995821 
	C66.536522,7.247303 63.433697,7.498052 60.358635,7.941370 
	C25.147018,13.017683 4.038204,48.332325 16.126675,81.903305 
	C25.243971,107.223015 49.850117,121.216370 79.748123,117.398766 
M103.050873,32.901012 
	C104.250282,36.629200 105.449684,40.357391 106.757500,44.422550 
	C111.954376,43.116707 116.871597,41.881134 121.712288,40.664791 
	C120.706810,27.554634 119.060493,26.271526 107.510033,29.172174 
	C106.386055,29.454437 105.160721,29.568813 104.184525,30.119419 
	C103.553429,30.475376 103.290649,31.484343 103.050873,32.901012 
M110.892365,18.204224 
	C109.672012,18.934008 108.451668,19.663792 106.254532,20.977713 
	C108.864616,22.927195 110.851410,24.411137 113.627281,26.484447 
	C114.196411,22.268444 115.897964,19.280924 110.892365,18.204224 
M100.630775,23.888094 
	C105.683853,24.169537 104.017677,20.950979 103.824539,18.204628 
	C101.495117,18.204628 99.475670,18.204628 95.593819,18.204628 
	C97.533104,20.832273 98.657631,22.355957 100.630775,23.888094 
M95.037804,13.195965 
	C95.693443,8.336493 92.776054,8.790616 89.671249,9.389784 
	C88.737160,14.999309 89.136726,15.344646 95.037804,13.195965 
z"/>
<path fill="#FAFAFA" opacity="1.000000" stroke="none" 
	d="
M79.311661,117.493378 
	C49.850117,121.216370 25.243971,107.223015 16.126675,81.903305 
	C4.038204,48.332325 25.147018,13.017683 60.358635,7.941370 
	C63.433697,7.498052 66.536522,7.247303 70.087273,7.995821 
	C69.322922,8.582810 68.592064,9.630732 67.789291,9.689080 
	C49.792786,10.997155 40.643192,22.685530 35.750904,38.196609 
	C29.370308,58.426388 29.786604,78.616463 40.138485,97.700691 
	C48.060890,112.306061 63.325245,119.177055 78.469109,114.828644 
	C91.432663,111.106277 98.454346,101.030251 102.998672,89.095581 
	C107.580986,77.061142 108.909569,64.573349 107.000389,51.786156 
	C106.885132,51.014179 106.985428,50.210014 106.985428,49.206329 
	C112.931061,49.206329 118.717812,49.206329 124.514313,49.206329 
	C132.653137,74.581062 116.755188,111.209572 79.311661,117.493378 
z"/>
<path fill="#EA6222" opacity="1.000000" stroke="none" 
	d="
M102.956848,32.550850 
	C103.290649,31.484343 103.553429,30.475376 104.184525,30.119419 
	C105.160721,29.568813 106.386055,29.454437 107.510033,29.172174 
	C119.060493,26.271526 120.706810,27.554634 121.712288,40.664791 
	C116.871597,41.881134 111.954376,43.116707 106.757500,44.422550 
	C105.449684,40.357391 104.250282,36.629200 102.956848,32.550850 
z"/>
<path fill="#DF5D23" opacity="1.000000" stroke="none" 
	d="
M111.236946,18.087402 
	C115.897964,19.280924 114.196411,22.268444 113.627281,26.484447 
	C110.851410,24.411137 108.864616,22.927195 106.254532,20.977713 
	C108.451668,19.663792 109.672012,18.934008 111.236946,18.087402 
z"/>
<path fill="#DF5E23" opacity="1.000000" stroke="none" 
	d="
M100.206467,23.883869 
	C98.657631,22.355957 97.533104,20.832273 95.593819,18.204628 
	C99.475670,18.204628 101.495117,18.204628 103.824539,18.204628 
	C104.017677,20.950979 105.683853,24.169537 100.206467,23.883869 
z"/>
<path fill="#D15A23" opacity="1.000000" stroke="none" 
	d="
M94.894165,13.589417 
	C89.136726,15.344646 88.737160,14.999309 89.671249,9.389784 
	C92.776054,8.790616 95.693443,8.336493 94.894165,13.589417 
z"/>
</svg>